<mxfile host="drawio-plugin" modified="2022-08-14T07:54:58.590Z" agent="5.0 (Windows NT 6.2; Win64; x64) AppleWebKit/537.36 (KHTML, like Gecko) Chrome/89.0.4389.114 Safari/537.36" etag="ppgSYf8Oa4KKb5Pq83yg" version="15.5.4" type="embed"><diagram id="S2ypeOvvycpNAgAjA3mA" name="Page-1"><mxGraphModel dx="1053" dy="613" grid="1" gridSize="10" guides="1" tooltips="1" connect="1" arrows="1" fold="1" page="1" pageScale="1" pageWidth="827" pageHeight="1169" math="0" shadow="0"><root><mxCell id="0"/><mxCell id="1" parent="0"/><mxCell id="KycJKE3FsNJFsC_Osg_b-12" style="edgeStyle=orthogonalEdgeStyle;rounded=0;orthogonalLoop=1;jettySize=auto;html=1;endArrow=none;endFill=0;" parent="1" source="vUMNLVF5anmC9w9eSEwW-13" target="vUMNLVF5anmC9w9eSEwW-41" edge="1"><mxGeometry relative="1" as="geometry"><Array as="points"><mxPoint x="110" y="850"/><mxPoint x="500" y="850"/></Array></mxGeometry></mxCell><mxCell id="KycJKE3FsNJFsC_Osg_b-40" value="1" style="edgeLabel;html=1;align=center;verticalAlign=middle;resizable=0;points=[];" parent="KycJKE3FsNJFsC_Osg_b-12" vertex="1" connectable="0"><mxGeometry x="-0.9573" relative="1" as="geometry"><mxPoint x="9.97" y="1.0300000000000002" as="offset"/></mxGeometry></mxCell><mxCell id="10" style="edgeStyle=orthogonalEdgeStyle;rounded=0;orthogonalLoop=1;jettySize=auto;html=1;endArrow=none;endFill=0;" edge="1" parent="1" source="vUMNLVF5anmC9w9eSEwW-13" target="3"><mxGeometry relative="1" as="geometry"><Array as="points"><mxPoint x="290" y="693"/><mxPoint x="290" y="650"/></Array></mxGeometry></mxCell><mxCell id="vUMNLVF5anmC9w9eSEwW-13" value="Order" style="swimlane;fontStyle=0;childLayout=stackLayout;horizontal=1;startSize=26;fillColor=none;horizontalStack=0;resizeParent=1;resizeParentMax=0;resizeLast=0;collapsible=1;marginBottom=0;" parent="1" vertex="1"><mxGeometry x="40" y="602" width="150" height="182" as="geometry"/></mxCell><mxCell id="vUMNLVF5anmC9w9eSEwW-14" value="Order ID" style="text;strokeColor=none;fillColor=none;align=left;verticalAlign=top;spacingLeft=4;spacingRight=4;overflow=hidden;rotatable=0;points=[[0,0.5],[1,0.5]];portConstraint=eastwest;" parent="vUMNLVF5anmC9w9eSEwW-13" vertex="1"><mxGeometry y="26" width="150" height="26" as="geometry"/></mxCell><mxCell id="vUMNLVF5anmC9w9eSEwW-15" value="/Total price" style="text;strokeColor=none;fillColor=none;align=left;verticalAlign=top;spacingLeft=4;spacingRight=4;overflow=hidden;rotatable=0;points=[[0,0.5],[1,0.5]];portConstraint=eastwest;" parent="vUMNLVF5anmC9w9eSEwW-13" vertex="1"><mxGeometry y="52" width="150" height="26" as="geometry"/></mxCell><mxCell id="vUMNLVF5anmC9w9eSEwW-18" value="Date/Time ordered" style="text;strokeColor=none;fillColor=none;align=left;verticalAlign=top;spacingLeft=4;spacingRight=4;overflow=hidden;rotatable=0;points=[[0,0.5],[1,0.5]];portConstraint=eastwest;" parent="vUMNLVF5anmC9w9eSEwW-13" vertex="1"><mxGeometry y="78" width="150" height="26" as="geometry"/></mxCell><mxCell id="KycJKE3FsNJFsC_Osg_b-42" value="Note " style="text;strokeColor=none;fillColor=none;align=left;verticalAlign=top;spacingLeft=4;spacingRight=4;overflow=hidden;rotatable=0;points=[[0,0.5],[1,0.5]];portConstraint=eastwest;" parent="vUMNLVF5anmC9w9eSEwW-13" vertex="1"><mxGeometry y="104" width="150" height="26" as="geometry"/></mxCell><mxCell id="vUMNLVF5anmC9w9eSEwW-20" value="Order Status" style="text;strokeColor=none;fillColor=none;align=left;verticalAlign=top;spacingLeft=4;spacingRight=4;overflow=hidden;rotatable=0;points=[[0,0.5],[1,0.5]];portConstraint=eastwest;" parent="vUMNLVF5anmC9w9eSEwW-13" vertex="1"><mxGeometry y="130" width="150" height="26" as="geometry"/></mxCell><mxCell id="KycJKE3FsNJFsC_Osg_b-13" value="Contact Number" style="text;strokeColor=none;fillColor=none;align=left;verticalAlign=top;spacingLeft=4;spacingRight=4;overflow=hidden;rotatable=0;points=[[0,0.5],[1,0.5]];portConstraint=eastwest;" parent="vUMNLVF5anmC9w9eSEwW-13" vertex="1"><mxGeometry y="156" width="150" height="26" as="geometry"/></mxCell><mxCell id="KycJKE3FsNJFsC_Osg_b-15" style="edgeStyle=orthogonalEdgeStyle;rounded=0;orthogonalLoop=1;jettySize=auto;html=1;endArrow=none;endFill=0;" parent="1" source="vUMNLVF5anmC9w9eSEwW-36" target="vUMNLVF5anmC9w9eSEwW-26" edge="1"><mxGeometry relative="1" as="geometry"><Array as="points"><mxPoint x="700" y="912"/></Array><mxPoint x="800" y="680" as="sourcePoint"/></mxGeometry></mxCell><mxCell id="KycJKE3FsNJFsC_Osg_b-27" style="edgeStyle=orthogonalEdgeStyle;rounded=0;orthogonalLoop=1;jettySize=auto;html=1;entryX=0.5;entryY=1;entryDx=0;entryDy=0;endArrow=none;endFill=0;" parent="1" source="vUMNLVF5anmC9w9eSEwW-13" target="KycJKE3FsNJFsC_Osg_b-18" edge="1"><mxGeometry relative="1" as="geometry"><Array as="points"><mxPoint x="105" y="281"/><mxPoint x="225" y="281"/></Array><mxPoint x="105" y="400.9999999999999" as="sourcePoint"/></mxGeometry></mxCell><mxCell id="vUMNLVF5anmC9w9eSEwW-26" value="Stuff" style="swimlane;fontStyle=0;childLayout=stackLayout;horizontal=1;startSize=26;fillColor=none;horizontalStack=0;resizeParent=1;resizeParentMax=0;resizeLast=0;collapsible=1;marginBottom=0;" parent="1" vertex="1"><mxGeometry x="630" y="383" width="140" height="100" as="geometry"/></mxCell><mxCell id="vUMNLVF5anmC9w9eSEwW-27" value="Stuff ID" style="text;strokeColor=none;fillColor=none;align=left;verticalAlign=top;spacingLeft=4;spacingRight=4;overflow=hidden;rotatable=0;points=[[0,0.5],[1,0.5]];portConstraint=eastwest;" parent="vUMNLVF5anmC9w9eSEwW-26" vertex="1"><mxGeometry y="26" width="140" height="22" as="geometry"/></mxCell><mxCell id="9l4VpIScvD9xsvnCj6-5-21" value="UserName" style="text;strokeColor=none;fillColor=none;align=left;verticalAlign=top;spacingLeft=4;spacingRight=4;overflow=hidden;rotatable=0;points=[[0,0.5],[1,0.5]];portConstraint=eastwest;" parent="vUMNLVF5anmC9w9eSEwW-26" vertex="1"><mxGeometry y="48" width="140" height="26" as="geometry"/></mxCell><mxCell id="vUMNLVF5anmC9w9eSEwW-28" value="Password" style="text;strokeColor=none;fillColor=none;align=left;verticalAlign=top;spacingLeft=4;spacingRight=4;overflow=hidden;rotatable=0;points=[[0,0.5],[1,0.5]];portConstraint=eastwest;" parent="vUMNLVF5anmC9w9eSEwW-26" vertex="1"><mxGeometry y="74" width="140" height="26" as="geometry"/></mxCell><mxCell id="vUMNLVF5anmC9w9eSEwW-46" style="edgeStyle=orthogonalEdgeStyle;rounded=0;orthogonalLoop=1;jettySize=auto;html=1;endArrow=none;endFill=0;" parent="1" source="KycJKE3FsNJFsC_Osg_b-18" target="vUMNLVF5anmC9w9eSEwW-35" edge="1"><mxGeometry relative="1" as="geometry"><Array as="points"><mxPoint x="260" y="420"/><mxPoint x="620" y="420"/></Array><mxPoint x="420" y="500" as="sourcePoint"/></mxGeometry></mxCell><mxCell id="vUMNLVF5anmC9w9eSEwW-47" style="edgeStyle=orthogonalEdgeStyle;rounded=0;orthogonalLoop=1;jettySize=auto;html=1;endArrow=none;endFill=0;" parent="1" source="KycJKE3FsNJFsC_Osg_b-18" target="vUMNLVF5anmC9w9eSEwW-40" edge="1"><mxGeometry relative="1" as="geometry"><Array as="points"><mxPoint x="225" y="400"/><mxPoint x="225" y="400"/></Array><mxPoint x="390" y="511" as="sourcePoint"/></mxGeometry></mxCell><mxCell id="KycJKE3FsNJFsC_Osg_b-28" style="edgeStyle=orthogonalEdgeStyle;rounded=0;orthogonalLoop=1;jettySize=auto;html=1;entryX=0.882;entryY=1.023;entryDx=0;entryDy=0;endArrow=none;endFill=0;entryPerimeter=0;" parent="1" source="vUMNLVF5anmC9w9eSEwW-26" target="KycJKE3FsNJFsC_Osg_b-18" edge="1"><mxGeometry relative="1" as="geometry"><Array as="points"><mxPoint x="710" y="281"/><mxPoint x="270" y="281"/><mxPoint x="270" y="220"/><mxPoint x="267" y="220"/></Array><mxPoint x="350" y="381" as="sourcePoint"/></mxGeometry></mxCell><mxCell id="9l4VpIScvD9xsvnCj6-5-5" style="edgeStyle=orthogonalEdgeStyle;rounded=0;orthogonalLoop=1;jettySize=auto;html=1;endArrow=none;endFill=0;" parent="1" source="vUMNLVF5anmC9w9eSEwW-35" target="vUMNLVF5anmC9w9eSEwW-36" edge="1"><mxGeometry relative="1" as="geometry"><Array as="points"><mxPoint x="620" y="760"/><mxPoint x="620" y="760"/></Array></mxGeometry></mxCell><mxCell id="vUMNLVF5anmC9w9eSEwW-35" value="Inventory" style="html=1;" parent="1" vertex="1"><mxGeometry x="560" y="589" width="120" height="51" as="geometry"/></mxCell><mxCell id="vUMNLVF5anmC9w9eSEwW-36" value="Ingredients" style="swimlane;fontStyle=0;childLayout=stackLayout;horizontal=1;startSize=26;fillColor=none;horizontalStack=0;resizeParent=1;resizeParentMax=0;resizeLast=0;collapsible=1;marginBottom=0;" parent="1" vertex="1"><mxGeometry x="520" y="850" width="120" height="104" as="geometry"/></mxCell><mxCell id="vUMNLVF5anmC9w9eSEwW-37" value="Ingredient name" style="text;strokeColor=none;fillColor=none;align=left;verticalAlign=top;spacingLeft=4;spacingRight=4;overflow=hidden;rotatable=0;points=[[0,0.5],[1,0.5]];portConstraint=eastwest;" parent="vUMNLVF5anmC9w9eSEwW-36" vertex="1"><mxGeometry y="26" width="120" height="26" as="geometry"/></mxCell><mxCell id="vUMNLVF5anmC9w9eSEwW-38" value="Price" style="text;strokeColor=none;fillColor=none;align=left;verticalAlign=top;spacingLeft=4;spacingRight=4;overflow=hidden;rotatable=0;points=[[0,0.5],[1,0.5]];portConstraint=eastwest;" parent="vUMNLVF5anmC9w9eSEwW-36" vertex="1"><mxGeometry y="52" width="120" height="26" as="geometry"/></mxCell><mxCell id="vUMNLVF5anmC9w9eSEwW-39" value="Quanlity" style="text;strokeColor=none;fillColor=none;align=left;verticalAlign=top;spacingLeft=4;spacingRight=4;overflow=hidden;rotatable=0;points=[[0,0.5],[1,0.5]];portConstraint=eastwest;" parent="vUMNLVF5anmC9w9eSEwW-36" vertex="1"><mxGeometry y="78" width="120" height="26" as="geometry"/></mxCell><mxCell id="7" style="edgeStyle=orthogonalEdgeStyle;rounded=0;orthogonalLoop=1;jettySize=auto;html=1;endArrow=none;endFill=0;" edge="1" parent="1" source="vUMNLVF5anmC9w9eSEwW-40" target="3"><mxGeometry relative="1" as="geometry"><Array as="points"><mxPoint x="290" y="628"/></Array></mxGeometry></mxCell><mxCell id="vUMNLVF5anmC9w9eSEwW-40" value="Menu" style="html=1;" parent="1" vertex="1"><mxGeometry x="210" y="570" width="110" height="50" as="geometry"/></mxCell><mxCell id="vUMNLVF5anmC9w9eSEwW-51" style="edgeStyle=orthogonalEdgeStyle;rounded=0;orthogonalLoop=1;jettySize=auto;html=1;endArrow=none;endFill=0;" parent="1" source="vUMNLVF5anmC9w9eSEwW-41" target="vUMNLVF5anmC9w9eSEwW-36" edge="1"><mxGeometry relative="1" as="geometry"><Array as="points"><mxPoint x="550" y="800"/><mxPoint x="550" y="800"/></Array></mxGeometry></mxCell><mxCell id="9" style="edgeStyle=orthogonalEdgeStyle;rounded=0;orthogonalLoop=1;jettySize=auto;html=1;endArrow=block;endFill=0;" edge="1" parent="1" source="vUMNLVF5anmC9w9eSEwW-41" target="3"><mxGeometry relative="1" as="geometry"><Array as="points"><mxPoint x="530" y="690"/><mxPoint x="460" y="690"/></Array></mxGeometry></mxCell><mxCell id="vUMNLVF5anmC9w9eSEwW-41" value="Food" style="swimlane;fontStyle=0;childLayout=stackLayout;horizontal=1;startSize=26;fillColor=none;horizontalStack=0;resizeParent=1;resizeParentMax=0;resizeLast=0;collapsible=1;marginBottom=0;" parent="1" vertex="1"><mxGeometry x="460" y="732" width="140" height="52" as="geometry"/></mxCell><mxCell id="vUMNLVF5anmC9w9eSEwW-43" value="Availability " style="text;strokeColor=none;fillColor=none;align=left;verticalAlign=top;spacingLeft=4;spacingRight=4;overflow=hidden;rotatable=0;points=[[0,0.5],[1,0.5]];portConstraint=eastwest;" parent="vUMNLVF5anmC9w9eSEwW-41" vertex="1"><mxGeometry y="26" width="140" height="26" as="geometry"/></mxCell><mxCell id="8" style="edgeStyle=orthogonalEdgeStyle;rounded=0;orthogonalLoop=1;jettySize=auto;html=1;endArrow=block;endFill=0;" edge="1" parent="1" source="vUMNLVF5anmC9w9eSEwW-54" target="3"><mxGeometry relative="1" as="geometry"><Array as="points"><mxPoint x="360" y="690"/><mxPoint x="460" y="690"/></Array></mxGeometry></mxCell><mxCell id="vUMNLVF5anmC9w9eSEwW-54" value="Drink" style="swimlane;fontStyle=0;childLayout=stackLayout;horizontal=1;startSize=26;fillColor=none;horizontalStack=0;resizeParent=1;resizeParentMax=0;resizeLast=0;collapsible=1;marginBottom=0;" parent="1" vertex="1"><mxGeometry x="300" y="732" width="140" height="52" as="geometry"/></mxCell><mxCell id="2" value="Quanlity " style="text;strokeColor=none;fillColor=none;align=left;verticalAlign=top;spacingLeft=4;spacingRight=4;overflow=hidden;rotatable=0;points=[[0,0.5],[1,0.5]];portConstraint=eastwest;" vertex="1" parent="vUMNLVF5anmC9w9eSEwW-54"><mxGeometry y="26" width="140" height="26" as="geometry"/></mxCell><mxCell id="KycJKE3FsNJFsC_Osg_b-18" value="Restaurant" style="html=1;" parent="1" vertex="1"><mxGeometry x="170" y="170" width="110" height="50" as="geometry"/></mxCell><mxCell id="KycJKE3FsNJFsC_Osg_b-32" value="1" style="text;html=1;align=center;verticalAlign=middle;resizable=0;points=[];autosize=1;" parent="1" vertex="1"><mxGeometry x="230" y="220" width="20" height="20" as="geometry"/></mxCell><mxCell id="KycJKE3FsNJFsC_Osg_b-37" value="*" style="text;html=1;align=center;verticalAlign=middle;resizable=0;points=[];autosize=1;" parent="1" vertex="1"><mxGeometry x="370" y="650" width="20" height="20" as="geometry"/></mxCell><mxCell id="KycJKE3FsNJFsC_Osg_b-38" value="1" style="text;html=1;align=center;verticalAlign=middle;resizable=0;points=[];autosize=1;" parent="1" vertex="1"><mxGeometry x="190" y="670" width="20" height="20" as="geometry"/></mxCell><mxCell id="KycJKE3FsNJFsC_Osg_b-44" value="*" style="text;html=1;align=center;verticalAlign=middle;resizable=0;points=[];autosize=1;" parent="1" vertex="1"><mxGeometry x="550" y="834" width="20" height="20" as="geometry"/></mxCell><mxCell id="KycJKE3FsNJFsC_Osg_b-47" value="*" style="text;html=1;align=center;verticalAlign=middle;resizable=0;points=[];autosize=1;" parent="1" vertex="1"><mxGeometry x="110" y="582" width="20" height="20" as="geometry"/></mxCell><mxCell id="KycJKE3FsNJFsC_Osg_b-51" value="1&lt;br&gt;" style="text;html=1;align=center;verticalAlign=middle;resizable=0;points=[];autosize=1;" parent="1" vertex="1"><mxGeometry x="720" y="360" width="20" height="20" as="geometry"/></mxCell><mxCell id="9l4VpIScvD9xsvnCj6-5-10" value="works at" style="text;html=1;strokeColor=none;fillColor=none;align=center;verticalAlign=middle;whiteSpace=wrap;rounded=0;" parent="1" vertex="1"><mxGeometry x="380" y="260" width="60" height="20" as="geometry"/></mxCell><mxCell id="9l4VpIScvD9xsvnCj6-5-11" value="Manage" style="text;html=1;strokeColor=none;fillColor=none;align=center;verticalAlign=middle;whiteSpace=wrap;rounded=0;" parent="1" vertex="1"><mxGeometry x="710" y="690" width="40" height="20" as="geometry"/></mxCell><mxCell id="9l4VpIScvD9xsvnCj6-5-12" value="Contains" style="text;html=1;strokeColor=none;fillColor=none;align=center;verticalAlign=middle;whiteSpace=wrap;rounded=0;" parent="1" vertex="1"><mxGeometry x="240" y="670" width="40" height="20" as="geometry"/></mxCell><mxCell id="9l4VpIScvD9xsvnCj6-5-13" value="&lt;span style=&quot;color: rgb(0, 0, 0); font-family: helvetica; font-size: 12px; font-style: normal; font-weight: 400; letter-spacing: normal; text-align: center; text-indent: 0px; text-transform: none; word-spacing: 0px; background-color: rgb(248, 249, 250); display: inline; float: none;&quot;&gt;Contains&lt;/span&gt;" style="text;whiteSpace=wrap;html=1;" parent="1" vertex="1"><mxGeometry x="260" y="820" width="70" height="30" as="geometry"/></mxCell><mxCell id="9l4VpIScvD9xsvnCj6-5-14" value="&lt;span style=&quot;color: rgb(0 , 0 , 0) ; font-family: &amp;#34;helvetica&amp;#34; ; font-size: 12px ; font-style: normal ; font-weight: 400 ; letter-spacing: normal ; text-align: center ; text-indent: 0px ; text-transform: none ; word-spacing: 0px ; background-color: rgb(248 , 249 , 250) ; display: inline ; float: none&quot;&gt;Customer place order&lt;/span&gt;" style="text;whiteSpace=wrap;html=1;" parent="1" vertex="1"><mxGeometry x="110" y="453" width="70" height="30" as="geometry"/></mxCell><mxCell id="9l4VpIScvD9xsvnCj6-5-15" value="Uses" style="text;html=1;strokeColor=none;fillColor=none;align=center;verticalAlign=middle;whiteSpace=wrap;rounded=0;" parent="1" vertex="1"><mxGeometry x="550" y="814" width="40" height="20" as="geometry"/></mxCell><mxCell id="9l4VpIScvD9xsvnCj6-5-18" value="&lt;span style=&quot;color: rgb(0 , 0 , 0) ; font-family: &amp;#34;helvetica&amp;#34; ; font-size: 12px ; font-style: normal ; font-weight: 400 ; letter-spacing: normal ; text-align: center ; text-indent: 0px ; text-transform: none ; word-spacing: 0px ; background-color: rgb(248 , 249 , 250) ; display: inline ; float: none&quot;&gt;offers for sale&lt;/span&gt;" style="text;whiteSpace=wrap;html=1;" parent="1" vertex="1"><mxGeometry x="140" y="510" width="80" height="30" as="geometry"/></mxCell><mxCell id="9l4VpIScvD9xsvnCj6-5-19" value="&lt;span style=&quot;color: rgb(0 , 0 , 0) ; font-family: &amp;#34;helvetica&amp;#34; ; font-size: 12px ; font-style: normal ; font-weight: 400 ; letter-spacing: normal ; text-align: center ; text-indent: 0px ; text-transform: none ; word-spacing: 0px ; background-color: rgb(248 , 249 , 250) ; display: inline ; float: none&quot;&gt;maintains&lt;/span&gt;" style="text;whiteSpace=wrap;html=1;" parent="1" vertex="1"><mxGeometry x="495" y="470" width="70" height="30" as="geometry"/></mxCell><mxCell id="9l4VpIScvD9xsvnCj6-5-20" value="&lt;span style=&quot;color: rgb(0 , 0 , 0) ; font-family: &amp;#34;helvetica&amp;#34; ; font-size: 12px ; font-style: normal ; font-weight: 400 ; letter-spacing: normal ; text-align: center ; text-indent: 0px ; text-transform: none ; word-spacing: 0px ; background-color: rgb(248 , 249 , 250) ; display: inline ; float: none&quot;&gt;stores&lt;/span&gt;" style="text;whiteSpace=wrap;html=1;" parent="1" vertex="1"><mxGeometry x="630" y="738" width="70" height="30" as="geometry"/></mxCell><mxCell id="9l4VpIScvD9xsvnCj6-5-23" value="*" style="text;html=1;align=center;verticalAlign=middle;resizable=0;points=[];autosize=1;" parent="1" vertex="1"><mxGeometry x="550" y="794" width="20" height="20" as="geometry"/></mxCell><mxCell id="9l4VpIScvD9xsvnCj6-5-24" value="*" style="text;html=1;align=center;verticalAlign=middle;resizable=0;points=[];autosize=1;" parent="1" vertex="1"><mxGeometry x="500" y="794" width="20" height="20" as="geometry"/></mxCell><mxCell id="9l4VpIScvD9xsvnCj6-5-26" value="1" style="text;html=1;align=center;verticalAlign=middle;resizable=0;points=[];autosize=1;" parent="1" vertex="1"><mxGeometry x="230" y="550" width="20" height="20" as="geometry"/></mxCell><mxCell id="9l4VpIScvD9xsvnCj6-5-27" value="1" style="text;html=1;align=center;verticalAlign=middle;resizable=0;points=[];autosize=1;" parent="1" vertex="1"><mxGeometry x="590" y="560" width="20" height="20" as="geometry"/></mxCell><mxCell id="9l4VpIScvD9xsvnCj6-5-33" value="1" style="text;html=1;align=center;verticalAlign=middle;resizable=0;points=[];autosize=1;" parent="1" vertex="1"><mxGeometry x="700" y="509" width="20" height="20" as="geometry"/></mxCell><mxCell id="9l4VpIScvD9xsvnCj6-5-34" value="1" style="text;html=1;align=center;verticalAlign=middle;resizable=0;points=[];autosize=1;" parent="1" vertex="1"><mxGeometry x="630" y="640" width="20" height="20" as="geometry"/></mxCell><mxCell id="9l4VpIScvD9xsvnCj6-5-35" value="0..*" style="text;html=1;align=center;verticalAlign=middle;resizable=0;points=[];autosize=1;" parent="1" vertex="1"><mxGeometry x="620" y="830" width="30" height="20" as="geometry"/></mxCell><mxCell id="9l4VpIScvD9xsvnCj6-5-36" value="0..*" style="text;html=1;align=center;verticalAlign=middle;resizable=0;points=[];autosize=1;" parent="1" vertex="1"><mxGeometry x="650" y="920" width="30" height="20" as="geometry"/></mxCell><mxCell id="3" value="Item" style="swimlane;fontStyle=0;childLayout=stackLayout;horizontal=1;startSize=26;fillColor=none;horizontalStack=0;resizeParent=1;resizeParentMax=0;resizeLast=0;collapsible=1;marginBottom=0;" vertex="1" parent="1"><mxGeometry x="390" y="589" width="140" height="78" as="geometry"/></mxCell><mxCell id="4" value="Name" style="text;strokeColor=none;fillColor=none;align=left;verticalAlign=top;spacingLeft=4;spacingRight=4;overflow=hidden;rotatable=0;points=[[0,0.5],[1,0.5]];portConstraint=eastwest;" vertex="1" parent="3"><mxGeometry y="26" width="140" height="26" as="geometry"/></mxCell><mxCell id="5" value="Price" style="text;strokeColor=none;fillColor=none;align=left;verticalAlign=top;spacingLeft=4;spacingRight=4;overflow=hidden;rotatable=0;points=[[0,0.5],[1,0.5]];portConstraint=eastwest;" vertex="1" parent="3"><mxGeometry y="52" width="140" height="26" as="geometry"/></mxCell></root></mxGraphModel></diagram></mxfile>